<svg width="25" height="23" viewBox="0 0 25 23" fill="none" xmlns="http://www.w3.org/2000/svg">
<path d="M23.64 20.2739V9.16692C23.64 8.96406 23.5907 8.76399 23.4959 8.58255C23.4012 8.4011 23.2636 8.24327 23.0941 8.12156L13.5413 1.26134C13.3051 1.0917 13.0178 1 12.7225 1C12.4272 1 12.1399 1.0917 11.9037 1.26134L2.35087 8.12156C2.18138 8.24327 2.04381 8.4011 1.94907 8.58255C1.85432 8.76399 1.80499 8.96406 1.80499 9.16692V20.2739C1.80499 20.6205 1.94877 20.9529 2.2047 21.1979C2.46063 21.443 2.80774 21.5806 3.16968 21.5806H8.62843C8.99037 21.5806 9.33748 21.443 9.59341 21.1979C9.84934 20.9529 9.99312 20.6205 9.99312 20.2739V16.3538C9.99312 16.0073 10.1369 15.6749 10.3928 15.4298C10.6488 15.1848 10.9959 15.0471 11.3578 15.0471H14.0872C14.4491 15.0471 14.7962 15.1848 15.0522 15.4298C15.3081 15.6749 15.4519 16.0073 15.4519 16.3538V20.2739C15.4519 20.6205 15.5956 20.9529 15.8516 21.1979C16.1075 21.443 16.4546 21.5806 16.8166 21.5806H22.2753C22.6372 21.5806 22.9844 21.443 23.2403 21.1979C23.4962 20.9529 23.64 20.6205 23.64 20.2739Z" fill="#49BFC1" stroke="#49BFC1" stroke-width="2" stroke-linecap="round" stroke-linejoin="round"/>
</svg>
