<svg width="25" height="24" viewBox="0 0 25 24" fill="none" xmlns="http://www.w3.org/2000/svg">
<path d="M12.1225 0C5.54818 0 0.212502 5.376 0.212502 12C0.212502 18.624 5.54818 24 12.1225 24C18.6968 24 24.0325 18.624 24.0325 12C24.0325 5.376 18.6968 0 12.1225 0ZM12.1225 19.8C11.134 19.8 10.336 18.996 10.336 18H13.909C13.909 18.996 13.111 19.8 12.1225 19.8ZM18.0775 16.8H6.1675V15.6L7.3585 14.4V11.268C7.3585 8.724 8.58523 6.564 10.9315 6V5.4C10.9315 4.716 11.4436 4.2 12.1225 4.2C12.8014 4.2 13.3135 4.716 13.3135 5.4V6C15.6598 6.564 16.8865 8.736 16.8865 11.268V14.4L18.0775 15.6V16.8Z" fill="#49BFC1"/>
</svg>
