<svg width="30" height="29" viewBox="0 0 30 29" fill="none" xmlns="http://www.w3.org/2000/svg">
<path d="M15 0.684814C6.72 0.684814 0 7.00671 0 14.7962C0 22.5857 6.72 28.9076 15 28.9076C23.28 28.9076 30 22.5857 30 14.7962C30 7.00671 23.28 0.684814 15 0.684814ZM15 23.9686C13.755 23.9686 12.75 23.0231 12.75 21.8519H17.25C17.25 23.0231 16.245 23.9686 15 23.9686ZM22.5 20.4407H7.5V19.0296L9 17.6185V13.9354C9 10.9438 10.545 8.40374 13.5 7.7405V7.03493C13.5 6.23058 14.145 5.6238 15 5.6238C15.855 5.6238 16.5 6.23058 16.5 7.03493V7.7405C19.455 8.40374 21 10.9579 21 13.9354V17.6185L22.5 19.0296V20.4407Z" fill="black"/>
</svg>
