<svg width="25" height="24" viewBox="0 0 25 24" fill="none" xmlns="http://www.w3.org/2000/svg">
<path d="M5.05035 18.12C6.0627 17.34 7.19415 16.7248 8.4447 16.2744C9.69525 15.824 11.0053 15.5992 12.375 15.6C13.7446 15.6 15.0547 15.8252 16.3053 16.2756C17.5558 16.726 18.6873 17.3408 19.6996 18.12C20.3944 17.3 20.9355 16.37 21.323 15.33C21.7105 14.29 21.9038 13.18 21.903 12C21.903 9.34 20.9752 7.0748 19.1196 5.2044C17.2641 3.334 15.0158 2.3992 12.375 2.4C9.73495 2.4 7.48673 3.3348 5.63036 5.2044C3.77399 7.074 2.8462 9.3392 2.847 12C2.847 13.18 3.04073 14.29 3.4282 15.33C3.81568 16.37 4.35639 17.3 5.05035 18.12ZM12.375 13.2C11.2038 13.2 10.2161 12.7952 9.41179 11.9856C8.60747 11.176 8.2057 10.1808 8.2065 9C8.2065 7.82 8.60826 6.8248 9.41179 6.0144C10.2153 5.204 11.2031 4.7992 12.375 4.8C13.5461 4.8 14.5339 5.2048 15.3382 6.0144C16.1425 6.824 16.5443 7.8192 16.5435 9C16.5435 10.18 16.1417 11.1752 15.3382 11.9856C14.5347 12.796 13.5469 13.2008 12.375 13.2ZM12.375 24C10.7274 24 9.17915 23.6848 7.7301 23.0544C6.28105 22.424 5.02057 21.5692 3.94867 20.49C2.87677 19.41 2.02838 18.14 1.4035 16.68C0.778626 15.22 0.46579 13.66 0.464996 12C0.464996 10.34 0.777832 8.78 1.4035 7.32C2.02918 5.86 2.87757 4.59 3.94867 3.51C5.02057 2.43 6.28105 1.5752 7.7301 0.9456C9.17915 0.316 10.7274 0.0008 12.375 0C14.0225 0 15.5708 0.3152 17.0199 0.9456C18.4689 1.576 19.7294 2.4308 20.8013 3.51C21.8732 4.59 22.722 5.86 23.3477 7.32C23.9733 8.78 24.2858 10.34 24.285 12C24.285 13.66 23.9722 15.22 23.3465 16.68C22.7208 18.14 21.8724 19.41 20.8013 20.49C19.7294 21.57 18.4689 22.4252 17.0199 23.0556C15.5708 23.686 14.0225 24.0008 12.375 24Z" fill="#49BFC1"/>
</svg>
