<svg width="24" height="23" viewBox="0 0 24 23" fill="none" xmlns="http://www.w3.org/2000/svg">
<path d="M22.3529 0H1.64708C1.21025 0 0.791319 0.173529 0.482436 0.482412C0.173553 0.791295 2.39888e-05 1.21023 2.39888e-05 1.64706V20.4706C-0.00167781 20.7846 0.0871998 21.0924 0.256007 21.3572C0.424814 21.622 0.66639 21.8325 0.951788 21.9635C1.16967 22.0646 1.4069 22.1172 1.64708 22.1176C2.0351 22.1178 2.41049 21.9798 2.7059 21.7282L2.71649 21.7188L6.49766 18.4047C6.54001 18.3707 6.59279 18.3524 6.64708 18.3529H22.3529C22.7898 18.3529 23.2087 18.1794 23.5176 17.8705C23.8265 17.5616 24 17.1427 24 16.7059V1.64706C24 1.21023 23.8265 0.791295 23.5176 0.482412C23.2087 0.173529 22.7898 0 22.3529 0ZM22.5882 16.7059C22.5882 16.7683 22.5634 16.8281 22.5193 16.8722C22.4752 16.9164 22.4153 16.9412 22.3529 16.9412H6.64708C6.25959 16.9416 5.88468 17.0787 5.58825 17.3282L5.57767 17.3376L1.79414 20.6517C1.7597 20.6793 1.7182 20.6967 1.67438 20.7018C1.63056 20.7069 1.58618 20.6996 1.54631 20.6807C1.50644 20.6618 1.47269 20.6321 1.4489 20.5949C1.42511 20.5578 1.41225 20.5147 1.41179 20.4706V1.64706C1.41179 1.58465 1.43658 1.52481 1.4807 1.48068C1.52483 1.43655 1.58468 1.41176 1.64708 1.41176H22.3529C22.4153 1.41176 22.4752 1.43655 22.5193 1.48068C22.5634 1.52481 22.5882 1.58465 22.5882 1.64706V16.7059Z" fill="#49BFC1"/>
</svg>
