<svg width="22" height="21" viewBox="0 0 22 21" fill="none" xmlns="http://www.w3.org/2000/svg">
<path d="M11 0.998047C16.524 0.998047 21.002 5.47605 21.002 11C21.002 16.523 16.523 21 11 21C5.47605 21.001 0.998047 16.523 0.998047 11C0.998047 5.47605 5.47605 0.998047 11 0.998047ZM11 2.49805C9.87586 2.48585 8.76041 2.69675 7.71827 3.11852C6.67612 3.54029 5.72798 4.16457 4.92871 4.95521C4.12944 5.74586 3.49492 6.68718 3.06187 7.72469C2.62882 8.7622 2.40584 9.87529 2.40584 10.9995C2.40584 12.1238 2.62882 13.2369 3.06187 14.2744C3.49492 15.3119 4.12944 16.2532 4.92871 17.0439C5.72798 17.8345 6.67612 18.4588 7.71827 18.8806C8.76041 19.3023 9.87586 19.5132 11 19.501C13.2388 19.4768 15.3776 18.5704 16.9522 16.9787C18.5267 15.387 19.4098 13.2384 19.4098 10.9995C19.4098 8.76065 18.5267 6.61211 16.9522 5.02041C15.3776 3.42871 13.2388 2.52233 11 2.49805ZM7.46205 13.7825C7.46205 13.7829 7.46216 13.7832 7.46236 13.7834C7.88321 14.319 8.42036 14.7519 9.03317 15.0493C9.64612 15.3468 10.3187 15.5009 11 15.5C11.6806 15.5009 12.3525 15.347 12.9649 15.0501C13.5773 14.7532 14.1142 14.3209 14.535 13.786C14.5961 13.7088 14.6718 13.6443 14.7578 13.5962C14.8438 13.5482 14.9384 13.5176 15.0362 13.5061C15.134 13.4946 15.2332 13.5026 15.3279 13.5294C15.4227 13.5562 15.5113 13.6015 15.5885 13.6625C15.6658 13.7236 15.7303 13.7993 15.7784 13.8853C15.8264 13.9713 15.857 14.0659 15.8685 14.1637C15.88 14.2615 15.872 14.3607 15.8452 14.4554C15.8184 14.5502 15.7731 14.6388 15.712 14.716C15.1508 15.4287 14.4351 16.0046 13.6188 16.4002C12.8026 16.7959 11.9071 17.001 11 17C10.0916 17.0009 9.19491 16.7952 8.37771 16.3985C7.56051 16.0018 6.84423 15.4244 6.28305 14.71C6.22211 14.6326 6.17702 14.544 6.15035 14.4491C6.12368 14.3543 6.11596 14.2551 6.12761 14.1573C6.13926 14.0595 6.17007 13.9649 6.21827 13.879C6.26648 13.7931 6.33113 13.7175 6.40855 13.6565C6.48596 13.5956 6.57462 13.5505 6.66946 13.5239C6.7643 13.4972 6.86346 13.4895 6.96129 13.5011C7.05911 13.5128 7.15369 13.5436 7.23961 13.5918C7.32538 13.6399 7.40086 13.7044 7.46174 13.7817C7.46194 13.7819 7.46205 13.7822 7.46205 13.7825ZM8.00005 7.75005C8.16711 7.74532 8.33342 7.77414 8.48915 7.83481C8.64488 7.89548 8.78686 7.98676 8.90669 8.10325C9.02653 8.21975 9.12179 8.35909 9.18684 8.51304C9.25188 8.66699 9.2854 8.83242 9.2854 8.99955C9.2854 9.16667 9.25188 9.33211 9.18684 9.48606C9.12179 9.64001 9.02653 9.77935 8.90669 9.89584C8.78686 10.0123 8.64488 10.1036 8.48915 10.1643C8.33342 10.225 8.16711 10.2538 8.00005 10.249C7.67478 10.2398 7.36592 10.1042 7.1391 9.87084C6.91229 9.63752 6.7854 9.32495 6.7854 8.99955C6.7854 8.67415 6.91229 8.36157 7.1391 8.12825C7.36592 7.89493 7.67478 7.75925 8.00005 7.75005ZM14 7.75005C14.1671 7.74532 14.3334 7.77414 14.4891 7.83481C14.6449 7.89548 14.7869 7.98676 14.9067 8.10325C15.0265 8.21975 15.1218 8.35909 15.1868 8.51304C15.2519 8.66699 15.2854 8.83242 15.2854 8.99955C15.2854 9.16667 15.2519 9.33211 15.1868 9.48606C15.1218 9.64001 15.0265 9.77935 14.9067 9.89584C14.7869 10.0123 14.6449 10.1036 14.4891 10.1643C14.3334 10.225 14.1671 10.2538 14 10.249C13.6748 10.2398 13.3659 10.1042 13.1391 9.87084C12.9123 9.63752 12.7854 9.32495 12.7854 8.99955C12.7854 8.67415 12.9123 8.36157 13.1391 8.12825C13.3659 7.89493 13.6748 7.75925 14 7.75005Z" fill="black" fill-opacity="0.34"/>
</svg>
