<svg width="32" height="29" viewBox="0 0 32 29" fill="none" xmlns="http://www.w3.org/2000/svg">
<path d="M31 26.1427V11.8941C31 11.6338 30.9322 11.3772 30.8021 11.1444C30.6719 10.9116 30.4829 10.7092 30.25 10.553L17.125 1.75238C16.8004 1.53475 16.4057 1.41711 16 1.41711C15.5943 1.41711 15.1996 1.53475 14.875 1.75238L1.75 10.553C1.51713 10.7092 1.32813 10.9116 1.19795 11.1444C1.06777 11.3772 1 11.6338 1 11.8941V26.1427C1 26.5873 1.19754 27.0137 1.54918 27.3281C1.90081 27.6424 2.37772 27.819 2.875 27.819H10.375C10.8723 27.819 11.3492 27.6424 11.7008 27.3281C12.0525 27.0137 12.25 26.5873 12.25 26.1427V21.1138C12.25 20.6692 12.4475 20.2428 12.7992 19.9285C13.1508 19.6141 13.6277 19.4375 14.125 19.4375H17.875C18.3723 19.4375 18.8492 19.6141 19.2008 19.9285C19.5525 20.2428 19.75 20.6692 19.75 21.1138V26.1427C19.75 26.5873 19.9475 27.0137 20.2992 27.3281C20.6508 27.6424 21.1277 27.819 21.625 27.819H29.125C29.6223 27.819 30.0992 27.6424 30.4508 27.3281C30.8025 27.0137 31 26.5873 31 26.1427Z" fill="black" stroke="black" stroke-width="2" stroke-linecap="round" stroke-linejoin="round"/>
</svg>
