<svg width="51" height="51" viewBox="0 0 51 51" fill="none" xmlns="http://www.w3.org/2000/svg">
<path d="M13.6595 26.5497L29.2017 6.88916M21.2542 16.8618L15.0131 11.4537M37.5976 14.01L19.8836 35.2154M20.1875 20.1874C20.1875 21.5964 20.7472 22.9476 21.7435 23.9439C22.7398 24.9402 24.091 25.4999 25.5 25.4999C26.9089 25.4999 28.2602 24.9402 29.2565 23.9439C30.2528 22.9476 30.8125 21.5964 30.8125 20.1874C30.8125 18.7785 30.2528 17.4272 29.2565 16.4309C28.2602 15.4346 26.9089 14.8749 25.5 14.8749C24.091 14.8749 22.7398 15.4346 21.7435 16.4309C20.7472 17.4272 20.1875 18.7785 20.1875 20.1874Z" stroke="#49BFC1" stroke-width="2" stroke-linecap="round" stroke-linejoin="round"/>
<path d="M37.3809 13.549C38.3839 15.4763 38.9002 17.6162 38.8875 19.7858C38.8962 22.1252 38.373 24.4359 37.3575 26.5433C36.0852 28.8055 34.5987 30.9403 32.9184 32.9183C31.2524 34.901 29.7521 37.0196 28.4346 39.2509C27.7674 40.5684 27.2276 41.9496 26.826 43.3691C26.5689 44.1341 26.2374 44.625 25.5042 44.625C24.8349 44.625 24.5204 44.336 24.174 43.3648C23.7645 41.9118 23.2099 40.5036 22.5186 39.1616C21.615 37.6121 20.6046 36.1274 19.4947 34.7182C17.6311 32.2022 14.8644 29.3313 13.4321 26.0673C12.542 24.0857 12.0918 21.9347 12.1125 19.7625C12.0973 16.6081 13.2097 13.5521 15.249 11.1456C16.4984 9.64872 18.0621 8.44531 19.829 7.62082C21.5958 6.79632 23.5226 6.37097 25.4724 6.37497C26.8536 6.37001 28.2276 6.57346 29.5481 6.97847C31.2228 7.50243 32.7771 8.3528 34.1215 9.48051C35.4658 10.6082 36.5736 11.991 37.3809 13.549Z" stroke="#49BFC1" stroke-width="2" stroke-linecap="round" stroke-linejoin="round"/>
</svg>
