<svg width="25" height="26" viewBox="0 0 25 26" fill="none" xmlns="http://www.w3.org/2000/svg">
<path d="M12.9121 9.21959C12.0717 9.21959 11.2846 9.5481 10.6888 10.1485C10.0957 10.7489 9.76683 11.5418 9.76683 12.3886C9.76683 13.2354 10.0957 14.0283 10.6888 14.6287C11.2846 15.2263 12.0717 15.5576 12.9121 15.5576C13.7525 15.5576 14.5395 15.2263 15.1354 14.6287C15.7285 14.0283 16.0573 13.2354 16.0573 12.3886C16.0573 11.5418 15.7285 10.7489 15.1354 10.1485C14.8443 9.85298 14.4979 9.6187 14.1162 9.45924C13.7346 9.29977 13.3253 9.21831 12.9121 9.21959ZM24.5008 15.889L22.6626 14.3059C22.7497 13.7678 22.7947 13.2184 22.7947 12.6718C22.7947 12.1252 22.7497 11.573 22.6626 11.0377L24.5008 9.45464C24.6397 9.33487 24.7391 9.17534 24.7858 8.99727C24.8325 8.8192 24.8243 8.63103 24.7622 8.45778L24.7369 8.38415C24.231 6.95877 23.473 5.63754 22.4996 4.48448L22.449 4.425C22.3308 4.28497 22.1732 4.1843 21.9971 4.13628C21.821 4.08825 21.6346 4.09511 21.4624 4.15596L19.1801 4.97441C18.3368 4.27774 17.398 3.72833 16.3806 3.34601L15.9393 0.941641C15.906 0.760513 15.8188 0.593878 15.6892 0.463876C15.5597 0.333874 15.394 0.246658 15.2141 0.213816L15.1382 0.199656C13.6766 -0.0665521 12.1363 -0.0665521 10.6747 0.199656L10.5988 0.213816C10.4189 0.246658 10.2532 0.333874 10.1237 0.463876C9.99413 0.593878 9.90693 0.760513 9.87364 0.941641L9.42953 3.35734C8.42167 3.74271 7.48279 4.29078 6.64969 4.98008L4.35049 4.15596C4.17837 4.09463 3.99181 4.08752 3.81559 4.13557C3.63936 4.18363 3.48183 4.28458 3.36391 4.425L3.31332 4.48448C2.34161 5.63877 1.58377 6.95967 1.07595 8.38415L1.05065 8.45778C0.924168 8.81178 1.02817 9.20826 1.31205 9.45464L3.17278 11.0547C3.08564 11.5871 3.04348 12.1309 3.04348 12.669C3.04348 13.2127 3.08564 13.7565 3.17278 14.2832L1.31767 15.8833C1.17881 16.0031 1.07942 16.1626 1.03273 16.3407C0.986037 16.5187 0.994248 16.7069 1.05627 16.8802L1.08157 16.9538C1.59032 18.3783 2.34079 19.6952 3.31894 20.8535L3.36953 20.9129C3.48774 21.053 3.64528 21.1536 3.8214 21.2017C3.99751 21.2497 4.18394 21.2428 4.35611 21.182L6.65531 20.3579C7.49292 21.0517 8.42609 21.6011 9.43516 21.9806L9.87926 24.3963C9.91255 24.5774 9.99975 24.7441 10.1293 24.8741C10.2588 25.0041 10.4245 25.0913 10.6044 25.1241L10.6803 25.1383C12.1563 25.4059 13.6678 25.4059 15.1438 25.1383L15.2197 25.1241C15.3996 25.0913 15.5653 25.0041 15.6949 24.8741C15.8244 24.7441 15.9116 24.5774 15.9449 24.3963L16.3862 21.9919C17.4037 21.6068 18.3425 21.0602 19.1857 20.3635L21.468 21.182C21.6401 21.2433 21.8267 21.2504 22.0029 21.2024C22.1792 21.1543 22.3367 21.0534 22.4546 20.9129L22.5052 20.8535C23.4833 19.6895 24.2338 18.3783 24.7426 16.9538L24.7679 16.8802C24.8887 16.529 24.7847 16.1353 24.5008 15.889ZM12.9121 17.3673C10.1828 17.3673 7.97075 15.1385 7.97075 12.3886C7.97075 9.63872 10.1828 7.40994 12.9121 7.40994C15.6413 7.40994 17.8534 9.63872 17.8534 12.3886C17.8534 15.1385 15.6413 17.3673 12.9121 17.3673Z" fill="#49BFC1"/>
</svg>
