<svg width="30" height="30" viewBox="0 0 30 30" fill="none" xmlns="http://www.w3.org/2000/svg">
<path d="M5.775 22.2608C7.05 21.3436 8.475 20.6201 10.05 20.0905C11.625 19.5608 13.275 19.2965 15 19.2974C16.725 19.2974 18.375 19.5622 19.95 20.0919C21.525 20.6215 22.95 21.3445 24.225 22.2608C25.1 21.2965 25.7815 20.2029 26.2695 18.9799C26.7575 17.7569 27.001 16.4516 27 15.064C27 11.936 25.8315 9.27223 23.4945 7.07274C21.1575 4.87325 18.326 3.77397 15 3.77491C11.675 3.77491 8.8435 4.87419 6.5055 7.07274C4.1675 9.27129 2.999 11.935 3 15.064C3 16.4516 3.244 17.7569 3.732 18.9799C4.22 20.2029 4.901 21.2965 5.775 22.2608ZM15 16.4751C13.525 16.4751 12.281 15.9991 11.268 15.0471C10.255 14.095 9.749 12.9247 9.75 11.5362C9.75 10.1485 10.256 8.97825 11.268 8.02526C12.28 7.07227 13.524 6.59625 15 6.59719C16.475 6.59719 17.719 7.07321 18.732 8.02526C19.745 8.9773 20.251 10.1476 20.25 11.5362C20.25 12.9238 19.744 14.0941 18.732 15.0471C17.72 16.0001 16.476 16.4761 15 16.4751ZM15 29.1754C12.925 29.1754 10.975 28.8047 9.15 28.0634C7.325 27.3221 5.7375 26.3169 4.3875 25.0478C3.0375 23.7778 1.969 22.2843 1.182 20.5674C0.395 18.8506 0.001 17.0161 0 15.064C0 13.1119 0.394 11.2775 1.182 9.56058C1.97 7.84369 3.0385 6.35024 4.3875 5.08021C5.7375 3.81019 7.325 2.80499 9.15 2.06461C10.975 1.32424 12.925 0.953577 15 0.952637C17.075 0.952637 19.025 1.3233 20.85 2.06461C22.675 2.80593 24.2625 3.81113 25.6125 5.08021C26.9625 6.35024 28.0315 7.84369 28.8195 9.56058C29.6075 11.2775 30.001 13.1119 30 15.064C30 17.0161 29.606 18.8506 28.818 20.5674C28.03 22.2843 26.9615 23.7778 25.6125 25.0478C24.2625 26.3178 22.675 27.3235 20.85 28.0648C19.025 28.8061 17.075 29.1763 15 29.1754Z" fill="black"/>
</svg>
